<?xml version="1.0" standalone="no"?>
<!DOCTYPE svg PUBLIC "-//W3C//DTD SVG 1.1//EN" "http://www.w3.org/Graphics/SVG/1.1/DTD/svg11.dtd" >
<!--
2013-9-30: Created.
-->
<svg>
<metadata>
Created by iconfont
</metadata>
<defs>

<font id="iconfont" horiz-adv-x="1024" >
  <font-face
    font-family="iconfont"
    font-weight="500"
    font-stretch="normal"
    units-per-em="1024"
    ascent="896"
    descent="-128"
  />
    <missing-glyph />
    
    <glyph glyph-name="left" unicode="&#58880;" d="M402.746 665.254l-320-320c-24.994-24.992-24.994-65.516 0-90.508l320-320c24.994-24.992 65.516-24.992 90.51 0 24.996 24.992 24.996 65.516 0 90.508L282.508 236 896 236c35.346 0 64 28.652 64 64 0 35.346-28.654 64-64 64L282.508 364l210.746 210.746C505.75 587.242 512 603.622 512 620s-6.248 32.758-18.744 45.254C468.26 690.248 427.74 690.248 402.746 665.254z"  horiz-adv-x="1024" />

    
    <glyph glyph-name="right" unicode="&#58881;" d="M621.254-65.254l320 320c24.994 24.992 24.994 65.516 0 90.51l-320 320c-24.994 24.992-65.516 24.992-90.51 0-24.994-24.994-24.994-65.516 0-90.51L741.49 364 128 364c-35.346 0-64-28.654-64-64s28.654-64 64-64l613.49 0L530.744 25.254C518.248 12.758 512-3.622 512-20s6.248-32.758 18.744-45.254C555.738-90.248 596.26-90.248 621.254-65.254z"  horiz-adv-x="1024" />

    
    <glyph glyph-name="github" unicode="&#60120;" d="M950.930286 384q0-143.433143-83.748571-257.974857t-216.283429-158.573714q-15.433143-2.852571-22.601143 4.022857t-7.168 17.115429l0 120.539429q0 55.442286-29.696 81.115429 32.548571 3.437714 58.587429 10.313143t53.686857 22.308571 46.299429 38.034286 30.281143 59.977143 11.702857 86.016q0 69.12-45.129143 117.686857 21.138286 52.004571-4.534857 116.589714-16.018286 5.12-46.299429-6.290286t-52.589714-25.161143l-21.723429-13.677714q-53.174857 14.848-109.714286 14.848t-109.714286-14.848q-9.142857 6.290286-24.283429 15.433143t-47.689143 22.016-49.152 7.68q-25.161143-64.585143-4.022857-116.589714-45.129143-48.566857-45.129143-117.686857 0-48.566857 11.702857-85.723429t29.988571-59.977143 46.006857-38.253714 53.686857-22.308571 58.587429-10.313143q-22.820571-20.553143-28.013714-58.88-11.995429-5.705143-25.746286-8.557714t-32.548571-2.852571-37.449143 12.288-31.744 35.693714q-10.825143 18.285714-27.721143 29.696t-28.306286 13.677714l-11.410286 1.682286q-11.995429 0-16.603429-2.56t-2.852571-6.582857 5.12-7.972571 7.460571-6.875429l4.022857-2.852571q12.580571-5.705143 24.868571-21.723429t17.993143-29.110857l5.705143-13.165714q7.460571-21.723429 25.161143-35.108571t38.253714-17.115429 39.716571-4.022857 31.744 1.974857l13.165714 2.267429q0-21.723429 0.292571-50.834286t0.292571-30.866286q0-10.313143-7.460571-17.115429t-22.820571-4.022857q-132.534857 44.032-216.283429 158.573714t-83.748571 257.974857q0 119.442286 58.88 220.306286t159.744 159.744 220.306286 58.88 220.306286-58.88 159.744-159.744 58.88-220.306286z"  horiz-adv-x="1024" />

    
    <glyph glyph-name="search" unicode="&#60382;" d="M694.857143 420.571429q0 105.691429-75.117714 180.882286t-180.882286 75.117714-180.882286-75.117714-75.117714-180.882286 75.117714-180.882286 180.882286-75.117714 180.882286 75.117714 75.117714 180.882286zM987.428571-54.857143q0-29.696-21.723429-51.419429t-51.419429-21.723429q-30.866286 0-51.419429 21.723429l-196.022857 195.437714q-102.253714-70.875429-227.986286-70.875429-81.700571 0-156.306286 31.744t-128.585143 85.723429-85.723429 128.585143-31.744 156.306286 31.744 156.306286 85.723429 128.585143 128.585143 85.723429 156.306286 31.744 156.306286-31.744 128.585143-85.723429 85.723429-128.585143 31.744-156.306286q0-125.732571-70.875429-227.986286l196.022857-196.022857q21.138286-21.138286 21.138286-51.419429z"  horiz-adv-x="1024" />

    
    <glyph glyph-name="tencentweibo" unicode="&#60471;" d="M627.402942 569.098129q0-45.707756-32.543922-77.959149t-77.666619-32.251393q-34.2991 0-63.405799 19.965148-35.396086-38.24825-65.672904-83.444079-141.145551-211.937723-115.402942-490.791601 0.585059-12.578774-7.166976-22.012855t-19.745751-10.604199l-2.852164 0q-11.408656 0-19.965148 7.678903t-9.72661 19.160691q-7.971433 71.962291-1.974575 141.43808t16.820454 123.959434 30.861877 106.261391 39.418369 88.855878 42.270533 71.450364q34.884159 51.412084 75.399514 94.267676-9.141551 19.965148-9.141551 44.025711 0 45.707756 32.251393 77.959149t77.959149 32.251393 77.959149-32.251393 32.251393-77.959149zM845.118126 562.808742q0-90.245394-44.537637-166.815026t-121.3998-121.10727-167.107556-44.537637q-36.566205 0-74.814455 7.971433-11.993715 2.852164-18.575632 13.456363t-3.729753 22.597915q2.852164 11.408656 13.163834 17.990573t22.305385 4.314812q29.106699-7.459506 61.723754-7.459506 55.434367 0 106.261391 21.720326t87.39323 58.28653 58.28653 87.39323 21.720326 106.261391-21.720326 106.261391-58.28653 87.39323-87.39323 58.28653-106.261391 21.720326-106.261391-21.720326-87.39323-58.28653-58.28653-87.39323-21.720326-106.261391q0-65.160977 29.691758-124.544494 5.704328-11.408656 1.974575-22.817312t-14.55335-17.112984-22.597915-1.682045-17.405513 14.845879q-36.566205 70.280246-36.566205 151.384088 0 68.013141 26.547065 129.663762t71.157835 106.261391 106.261391 70.865305 129.151835 26.254535q90.245394 0 167.107556-44.537637t121.3998-121.3998 44.537637-167.107556z"  horiz-adv-x="1024" />

    
    <glyph glyph-name="twitter" unicode="&#60511;" d="M962.267429 662.820571q-38.253714-56.027429-92.598857-95.451429 0.585143-7.972571 0.585143-23.990857 0-74.313143-21.723429-148.260571t-65.974857-141.970286-105.398857-120.32-147.456-83.456-184.539429-31.158857q-154.843429 0-283.428571 82.870857 19.968-2.267429 44.544-2.267429 128.585143 0 229.156571 78.848-59.977143 1.170286-107.446857 36.864t-65.170286 91.136q18.870857-2.852571 34.889143-2.852571 24.576 0 48.566857 6.290286-64 13.165714-105.984 63.707429t-41.984 117.394286l0 2.267429q38.838857-21.723429 83.456-23.405714-37.741714 25.161143-59.977143 65.682286t-22.308571 87.990857q0 50.322286 25.161143 93.110857 69.12-85.138286 168.301714-136.265143t212.260571-56.832q-4.534857 21.723429-4.534857 42.276571 0 76.580571 53.979429 130.56t130.56 53.979429q80.018286 0 134.875429-58.294857 62.317714 11.995429 117.174857 44.544-21.138286-65.682286-81.115429-101.741714 53.174857 5.705143 106.276571 28.598857z"  horiz-adv-x="1024" />

    
    <glyph glyph-name="see" unicode="&#58886;" d="M512.057817 115.340167c-231.338832 0-414.664138 242.019079-422.330748 252.342192l-5.780657 7.751544 5.780657 7.714705c7.667633 10.323113 190.992939 252.379031 422.330748 252.379031 231.357252 0 414.635485-242.055918 422.312328-252.379031l5.799076-7.714705-5.799076-7.751544C926.694325 357.396085 743.415069 115.340167 512.057817 115.340167M116.59602 375.433904c33.391505-41.386596 199.627596-234.210229 395.46282-234.210229 196.013279 0 362.070292 192.785771 395.434168 234.210229-33.382295 41.3692-199.598944 234.210229-395.434168 234.210229C316.044538 609.644133 149.959895 416.839943 116.59602 375.433904zM512.057817 181.446771c-106.978477 0-194.023972 86.998423-194.023972 193.986109 0 106.969267 87.045495 194.005552 194.023972 194.005552 106.959034 0 193.995319-87.036285 193.995319-194.005552C706.054159 268.445194 619.017874 181.446771 512.057817 181.446771M512.057817 543.536506c-92.675726 0-168.111812-75.436086-168.111812-168.102602 0-92.704378 75.436086-168.084183 168.111812-168.084183 92.684936 0 168.084183 75.379804 168.084183 168.084183C680.142 468.10042 604.743776 543.536506 512.057817 543.536506z"  horiz-adv-x="1024" />

    
    <glyph glyph-name="close" unicode="&#59168;" d="M887.2 121.8 624.8 385.2l263 260c10.8 10.8 10.8 28.4 0 39.2l-74.8 75.2c-5.2 5.2-12.2 8-19.6 8-7.4 0-14.4-3-19.6-8L512 500.4 249.8 759.4c-5.2 5.2-12.2 8-19.6 8-7.4 0-14.4-3-19.6-8L136 684.2c-10.8-10.8-10.8-28.4 0-39.2l263-260L136.8 121.8c-5.2-5.2-8.2-12.2-8.2-19.6 0-7.4 2.8-14.4 8.2-19.6l74.8-75.2c5.4-5.4 12.4-8.2 19.6-8.2 7 0 14.2 2.6 19.6 8.2L512 269.8l261.4-262.2c5.4-5.4 12.4-8.2 19.6-8.2 7 0 14.2 2.6 19.6 8.2l74.8 75.2c5.2 5.2 8.2 12.2 8.2 19.6C895.4 109.6 892.4 116.6 887.2 121.8z"  horiz-adv-x="1024" />

    
    <glyph glyph-name="top" unicode="&#58888;" d="M528.969 733.581c-4.493 4.493-10.6 7.045-16.969 7.045-6.37 0-12.433-2.552-16.971-7.045l-174.67-174.606c-9.336-9.401-9.336-24.559 0-33.939 9.423-9.358 24.604-9.358 33.939 0l157.701 157.701 157.7-157.701c4.668-4.646 10.818-6.979 17.013-6.979 6.064 0 12.258 2.333 16.927 6.979 9.336 9.38 9.336 24.538 0 33.939l-174.669 174.606zM65.291 289.118h102.56l0-261.744h47.9v261.744h102.56v47.943h-253.020v-47.943zM582.713 337.061h-127.033c-15.312 0-30.667-5.867-42.316-17.537-11.778-11.735-17.624-27.047-17.624-42.38v-189.873c0-15.313 5.846-30.646 17.624-42.36 11.648-11.691 27.004-17.537 42.316-17.537h127.033c15.225 0 30.624 5.846 42.36 17.537 11.691 11.713 17.536 27.047 17.536 42.36v189.873c0 15.333-5.845 30.645-17.536 42.38-11.735 11.67-27.135 17.537-42.36 17.537v0zM594.666 87.27c0-2.269-0.611-5.54-3.533-8.464-2.836-2.879-6.195-3.489-8.42-3.489h-127.033c-2.269 0-5.584 0.611-8.464 3.489-2.879 2.923-3.489 6.195-3.489 8.464l-0 189.873c0 2.269 0.611 5.54 3.489 8.464 2.879 2.922 6.195 3.512 8.464 3.512h127.033c2.225 0 5.584-0.589 8.42-3.512 2.923-2.923 3.533-6.195 3.533-8.464l0-189.873zM941.215 319.524c-11.779 11.67-27.091 17.537-42.403 17.537h-164.331v-309.687h47.899l0 135.823h116.433c15.312 0 30.623 5.845 42.403 17.558 11.647 11.691 17.493 27.026 17.493 42.337v54.050c-0.001 15.334-5.847 30.646-17.494 42.381v0zM910.766 223.093c0-2.225-0.611-5.54-3.49-8.464-2.922-2.879-6.238-3.489-8.463-3.489l-116.432-0v77.978h116.433c2.225 0 5.54-0.589 8.463-3.512 2.88-2.923 3.49-6.195 3.49-8.464l-0-54.049h-0.001zM910.766 223.093z"  horiz-adv-x="1024" />

    
    <glyph glyph-name="LC_icon_user_line" unicode="&#58901;" d="M503.157 414.728c-132.672 0-240.594 107.95-240.594 240.622s107.923 240.65 240.594 240.65 240.594-107.95 240.594-240.622-107.95-240.65-240.594-240.65zM503.157 873.726c-120.381 0-218.348-97.94-218.348-218.376s97.94-218.376 218.348-218.376 218.348 97.94 218.348 218.376-97.967 218.376-218.348 218.376zM466.033-128c-108.451 0-206.391 6.702-275.688 18.854-87.484 15.35-130.058 38.736-130.058 71.466 0 223.214 202.637 404.828 451.712 404.828s451.712-181.586 451.712-404.828c0-74.080-359.251-90.32-497.679-90.32zM512 344.874c-236.813 0-429.438-171.603-429.438-382.554 0-33.842 131.698-68.074 383.472-68.074 285.81 0 475.433 40.989 475.433 68.074-0.028 210.951-192.653 382.554-429.466 382.554z"  horiz-adv-x="1024" />

    
    <glyph glyph-name="copy" unicode="&#59204;" d="M746.932 197.892M925.731 607.302c-1.261 1.18-3.607 3.272-6.902 6.343-5.486 5.112-11.615 10.758-18.236 16.891-18.921 17.526-38.003 35.028-56.046 51.397-2.038 1.848-2.038 1.835-4.077 3.682-24.075 21.795-44.156 39.556-58.996 52.076-8.682 7.325-15.517 12.807-20.539 16.426-3.333 2.402-6.043 4.13-8.715 5.396-3.365 1.595-6.48 2.566-10.905 2.483C729.478 761.773 720 752.23 720 740.266l0-42.475 0-42.475 0-84.95L720 549l21.205 0L890 549l0-595L358.689-46C323.429-46 295-17.132 295 18.078L295 719l361.205 0c11.736 0 21.25 9.771 21.25 21.5s-9.514 21.5-21.25 21.5l-382.5 0L252 762l0-21.734L252 83l-52.421 0C166.646 83 140 109.072 140 141.322L140 824l566.286 0C739.29 824 766 797.846 766 765.596L766 762l40 0 0 3.596C806 819.404 761.271 863 706.286 863L119.958 863 100 863l0-19.506 0-702.172C100 87.537 144.642 44 199.579 44L252 44l0-25.922C252-40.612 299.979-88 358.689-88l552.515 0L932-88l0 21.237L932 570.365 932 592l0.433 0C932.432 597 930.196 603.122 925.731 607.302zM762 592l0 63.315L762 697.79l0 0.273c14-11.479 30.3-26.369 49.711-43.942 2.022-1.832 2.136-1.832 4.157-3.665 17.923-16.259 36.957-33.492 55.779-50.926 2.878-2.666 5.713-5.531 8.391-7.531L762 591.999zM816.936 460 407.295 460c-10.996 0-19.91-8.727-19.91-19.5 0-10.77 8.914-19.5 19.91-19.5l409.641 0c11 0 19.914 8.73 19.914 19.5C836.85 451.273 827.936 460 816.936 460zM816.936 343 407.295 343c-10.996 0-19.91-8.727-19.91-19.5 0-10.774 8.914-19.5 19.91-19.5l409.641 0c11 0 19.914 8.726 19.914 19.5C836.85 334.273 827.936 343 816.936 343zM816.936 207 407.295 207c-10.996 0-19.91-8.729-19.91-19.503 0-10.769 8.914-19.497 19.91-19.497l409.641 0c11 0 19.914 8.729 19.914 19.497C836.85 198.271 827.936 207 816.936 207z"  horiz-adv-x="1024" />

    
    <glyph glyph-name="copy4fuzhi" unicode="&#59135;" d="M505.376139 326.43698 74.40971 534.489456c-6.189979 2.473331-9.28855 6.768147-9.28855 12.998035 0 6.198166 3.098571 10.494005 9.28855 13.006222l430.966429 208.052476c3.717671 1.197268 7.426133 1.197268 11.143805 0l430.966429-208.052476c6.189979-2.512217 9.289574-6.808056 9.289574-13.006222 0-6.229888-3.098571-10.525728-9.289574-12.998035L516.519943 326.43698c-1.236154-1.236154-3.098571-1.862417-5.571902-1.862417C508.466524 324.574562 506.612293 325.200826 505.376139 326.43698zM505.376139 177.827337 74.40971 385.880837c-6.189979 2.473331-9.28855 6.769171-9.28855 12.998035 0 6.198166 3.098571 10.494005 9.28855 13.006222l91.020016 44.582381c8.670473 4.913916 15.479553 2.480494 20.432355-7.426133 3.717671-7.43432 1.24434-13.664208-7.426133-18.578124l-65.015759-31.584346 397.527852-191.329607L908.47487 398.878872l-65.015759 31.584346c-8.670473 4.913916-11.143805 11.143805-7.426133 18.578124 4.953825 9.907651 11.761881 12.340049 20.432355 7.426133l91.020016-44.582381c6.189979-2.512217 9.289574-6.808056 9.289574-13.006222 0-6.229888-3.098571-10.525728-9.289574-12.998035L516.519943 177.827337c-1.236154-1.236154-3.098571-1.862417-5.571902-1.862417C508.466524 175.96492 506.612293 176.591183 505.376139 177.827337zM505.376139 29.218718 74.40971 237.271194c-6.189979 2.473331-9.28855 6.769171-9.28855 12.998035 0 6.198166 3.098571 10.494005 9.28855 13.006222l91.020016 44.582381c8.670473 4.913916 15.479553 2.480494 20.432355-7.426133 3.717671-7.43432 1.24434-13.664208-7.426133-18.578124l-65.015759-31.584346 397.527852-191.329607L908.47487 250.269229l-65.015759 31.584346c-8.670473 4.913916-11.143805 11.143805-7.426133 18.578124 4.953825 9.907651 11.761881 12.340049 20.432355 7.426133l91.020016-44.582381c6.189979-2.512217 9.289574-6.808056 9.289574-13.006222 0-6.229888-3.098571-10.525728-9.289574-12.998035L516.519943 29.218718c-1.236154-1.236154-3.098571-1.862417-5.571902-1.862417C508.466524 27.3563 506.612293 27.982564 505.376139 29.218718zM113.420189 547.487491l397.527852-191.329607L908.47487 547.487491 510.948041 738.825284 113.420189 547.487491z"  horiz-adv-x="1024" />

    
    <glyph glyph-name="sousuo2" unicode="&#58923;" d="M949.433724-5.786541 742.473115 201.175091c56.635905 66.875107 90.937129 153.268756 90.937129 247.790526 0 212.048487-171.923628 383.973138-383.973138 383.973138S65.464991 661.014104 65.464991 448.965617s171.923628-383.973138 383.973138-383.973138c94.52177 0 180.915419 34.301224 247.790526 90.905406L904.189264-51.062723c14.015202-14.015202 35.485189-15.230889 47.997154-2.719948C964.664613-41.27173 963.448926-19.801742 949.433724-5.786541zM449.437106 128.988002c-176.722934 0-319.977615 143.253658-319.977615 319.977615s143.253658 319.977615 319.977615 319.977615 319.977615-143.253658 319.977615-319.977615S626.161063 128.988002 449.437106 128.988002z"  horiz-adv-x="1024" />

    
    <glyph glyph-name="ico-to-top" unicode="&#58902;" d="M421.28 83.040c-15.36 0-13.92-6.72-10.080-17.76 13.44-37.92 25.92-76.32 40.32-118.080 7.68 12.48 13.44 21.6 20.64 33.6 17.76-23.040 19.2-50.88 39.36-72 9.6 23.52 18.24 44.64 27.84 68.64 6.72-9.6 12-16.8 19.2-26.88 18.24 44.64 35.52 86.4 54.24 131.52-66.72 0.48-129.12 0.48-191.52 0.96v0zM553.76 3.36c-17.28 20.64-17.28 20.64-21.6 14.4-6.24-16.32-12.96-33.12-22.080-56.16-12 24-26.88 60.96-30.72 60.96-8.16-7.68-9.12-10.080-17.28-16.8-28.32 54.24-27.84 55.2 30.72 55.2 27.36 0 54.72 0 83.52-0.48-5.28-21.6-13.92-39.84-22.56-57.12v0zM627.68 708.48c-29.28 54.72-65.28 97.92-105.12 138.72-8.16 8.16-14.88 19.68-29.76 4.32-115.68-120.48-190.56-256.32-169.44-430.080 12.48-101.76 38.88-200.64 70.080-298.080 5.28-16.8 14.4-22.56 31.68-22.080 54.24 0.96 108.48 0.96 162.72-0.48 19.68-0.48 29.28 5.28 36.96 24 27.84 68.16 48 138.24 59.52 210.72 21.6 132 15.84 260.16-56.64 372.96v0zM656.48 333.12c-10.080-60.96-28.32-120-50.4-177.6-6.24-15.36-13.92-20.64-30.24-20.16-45.6 1.44-91.2 0.96-137.28 0.48-13.44 0-20.64 3.36-25.44 17.76-29.76 92.16-53.76 185.28-64.32 281.28-16.32 148.32 48.96 265.92 144 371.52 10.080 11.040 16.8 8.64 26.4-1.44 32.64-35.040 62.4-72.48 88.32-120.48 67.68-105.6 69.6-227.040 48.96-351.36v0zM462.56 533.28c-42.72-24.48-57.6-79.68-33.12-122.4 24-42.24 80.16-57.6 122.4-34.080 41.76 23.52 57.12 80.16 33.12 122.88-24.48 42.72-80.16 58.080-122.4 33.6v0zM541.28 398.88c-30.24-18.24-72.96-7.2-91.2 24-17.76 30.24-7.2 70.56 22.56 88.8 30.72 18.72 72 8.16 90.72-24 17.76-30.24 7.68-71.040-22.080-88.8v0zM722.24 437.28c7.68-86.4-10.56-168.48-50.4-245.28-6.24-11.52-16.32-22.080 0.96-34.56 35.52-25.44 51.84-61.44 52.8-108.96 86.88 62.4 134.88 142.080 140.64 244.8 4.8 81.6-39.84 141.6-118.080 162.72-18.24 5.76-28.32 7.68-25.92-18.72v0zM768.8 421.92c47.52-18.24 77.76-62.4 76.32-117.12-1.92-78.24-35.040-153.12-100.32-206.88-9.6 29.28-22.080 53.76-44.16 72-10.56 8.64-4.32 16.8 0 25.44 32.16 64.32 51.36 141.6 48.96 213.6-1.44 17.76 4.8 18.24 19.2 12.96v0zM292.64 438.72c1.44 26.4-8.64 24.48-26.88 18.72-77.76-24-120-84.96-112.8-166.56 9.12-102.72 59.52-180.48 148.32-240-0.48 47.040 14.88 84 49.44 110.4 16.8 12.96 6.24 23.040 0 34.56-42.24 75.36-63.36 156.48-58.080 242.88v0zM246.56 421.92c13.92 5.76 20.16 5.76 20.16-12.48-0.48-72 21.12-148.8 55.68-212.16 4.32-8.16 11.040-16.32 0.96-25.44-21.6-18.72-33.12-43.68-41.76-72.96-67.2 51.36-102.72 125.76-107.52 203.52-2.88 54.72 25.92 99.84 72.48 119.52v0z"  horiz-adv-x="1024" />

    
    <glyph glyph-name="left1" unicode="&#58918;" d="M1259.402299 366.344828 19.616858 366.344828C7.846743 366.344828 0 374.191571 0 385.961686s7.846743 19.616858 19.616858 19.616858l1239.785441 0c11.770115 0 19.616858-7.846743 19.616858-19.616858S1271.172414 366.344828 1259.402299 366.344828zM510.038314-128c-3.923372 0-11.770115 0-15.693487 3.923372L3.923372 370.268199C3.923372 374.191571 0 378.114943 0 385.961686s3.923372 11.770115 3.923372 15.693487L498.268199 892.076628c7.846743 7.846743 19.616858 7.846743 27.463602 0s7.846743-19.616858 0-27.463602L47.08046 385.961686l478.651341-478.651341c7.846743-7.846743 7.846743-19.616858 0-27.463602C521.808429-124.076628 517.885057-128 510.038314-128z"  horiz-adv-x="1280" />

    
    <glyph glyph-name="iconfont27" unicode="&#58907;" d="M449.98144 652.09856c-57.7536 10.624-121.00096 7.98208-167.65952-6.8352C195.92192 617.80992 146.95936 566.016 119.76192 489.472c-32.22528-90.69568-2.93376-190.62784 15.81056-248.63744 18.74432-58.0096 76.0576-144.97792 135.94112-155.8528 63.7696-11.58144 121.30816 9.89696 155.37664 50.7392 16.05632 19.24608 30.27456 46.75072 31.70816 74.46016 0.93184 18.0224-1.22368 31.64672-6.1696 45.14816-5.64224 15.40096-15.06816 29.6448-32.95232 46.57664-19.18976 18.17088-62.53056 34.09408-104.28416 28.29312-30.90432-4.29056-56.55552-15.67744-78.4384-32.47616-33.5872-25.78944-65.41312-82.65728-65.41312-82.65728s-1.152 33.25952 13.27104 66.69824c7.22944 16.75264 24.3968 44.8512 41.26208 58.99776 17.12128 14.36672 37.85728 31.5392 72.1664 40.32 38.8864 9.95328 78.27456 6.97856 93.62944 3.5584 46.39744-10.32192 82.24256-34.64704 111.616-65.32096 59.52512-62.16704 82.46784-161.536 51.75296-246.03648-10.28096-28.28288-38.85056-61.06112-69.30944-85.10976-18.32448-14.464-57.00096-35.4048-103.18848-45.14304-30.592-6.4512-64.48128-6.2976-97.93536-2.2272-83.95776 10.22464-159.50336 86.53312-195.11296 147.77856-35.61472 61.24544-89.0368 186.05568-75.80672 320.60928 6.30272 64.12288 28.08832 132.46976 62.88384 182.4768C114.77504 646.6048 167.1168 680.84736 194.80576 696.86784c52.89984 30.60736 132.29056 43.6224 185.19552 40.832 33.62816-1.77664 86.85568-12.66688 137.27232-38.08768 39.66464-20.00384 75.78112-55.2448 92.17536-95.37536 9.81504-24.02304 6.71232-47.49312 6.67136-47.49312-0.04608-0.11776 1.13664 2.54464-31.44192 34.05312C557.16352 617.40544 507.72992 641.46944 449.98144 652.09856L449.98144 652.09856zM559.07328 740.81792c0 0 37.8624 68.5056 72.36096 88.50944 34.49856 20.00384 61.65504 7.67488 79.4624-5.92896 17.81248-13.60384 26.82368-30.91456 22.912-55.552-3.91168-24.63744-43.14624-71.76192-66.3296-106.22976C631.34208 688.01536 595.21024 714.41408 559.07328 740.81792L559.07328 740.81792zM408.26368 778.96704c0 0 6.8096 62.65344 26.31168 88.04864 19.50208 25.3952 43.65824 24.41216 61.23008 19.64544 17.57184-4.76672 29.73184-14.97088 34.53952-34.56 4.80256-19.59424-9.73312-66.688-16.24576-99.46112C478.81728 761.41056 443.54048 770.19136 408.26368 778.96704L408.26368 778.96704zM294.76352 770.93888c0 0-11.65824 45.60896-4.6592 68.34176 7.00416 22.72768 24.17664 28.16 37.7344 29.27104 13.55776 1.11104 24.7552-2.94912 33.2544-15.45728 8.4992-12.50304 10.66496-49.17248 14.69952-73.78432C348.78464 776.51968 321.77152 773.72928 294.76352 770.93888L294.76352 770.93888zM185.1648 732.8768c0 0-20.89984 34.67264-20.79232 55.01952 0.10752 20.352 12.86656 28.93312 23.7312 33.1008 10.85952 4.16768 21.06368 3.51744 31.1552-4.72064 10.09152-8.23296 20.97152-37.8368 30.39744-57.08288C228.15744 750.42304 206.66368 741.64736 185.1648 732.8768L185.1648 732.8768zM97.408 668.8512c0 0-26.7776 25.18528-31.72352 42.9312-4.9408 17.74592 4.0448 28.26752 12.47232 34.49344 8.4224 6.22592 17.46944 8.09472 28.29312 3.34336 10.81856-4.75648 27.6224-27.9296 40.59136-42.42944C130.49856 694.41024 113.95584 681.63072 97.408 668.8512L97.408 668.8512zM762.08128 358.31296c38.15424-4.096 77.2864-17.52064 103.7568-35.49696 49.01376-33.28 70.04672-74.84416 72.832-127.85664 3.3024-62.81216-33.65376-119.96672-56.192-152.81664-22.53824-32.84992-74.63424-76.66176-114.17088-72.33024-42.10176 4.61824-74.15296 28.78464-87.88992 60.71296-6.4768 15.04768-10.2656 34.92864-6.00576 52.55168 2.76992 11.46368 6.656 19.59936 12.27264 27.136 6.40512 8.59648 14.96064 15.76448 29.312 23.04512 15.40608 7.81312 45.52192 9.71776 70.59456-1.6896 18.56-8.44288 32.512-20.352 43.08992-34.94912 16.24064-22.41024 25.59488-63.95904 25.59488-63.95904s6.91712 20.61824 4.10112 44.25216c-1.408 11.83744-6.93248 32.64-14.86336 44.64128-8.05376 12.1856-17.8432 26.80832-37.70368 38.69696-22.50752 13.47072-47.73376 18.944-57.98912 19.6608-30.98624 2.17088-57.97376-6.39488-82.07872-20.14208-48.86016-27.86304-81.73056-85.84192-78.22336-144.49664 1.17248-19.63008 12.96896-45.48608 27.57632-66.21696 8.78592-12.47232 29.11744-32.78848 56.23808-47.49312 17.96608-9.73824 39.22432-15.9488 60.93824-19.62496 54.49728-9.22624 116.02944 24.51456 149.74464 56.25344 33.71008 31.73888 90.41408 99.98336 107.17696 186.73664 7.9872 41.33888 7.06048 88.2176-5.42208 126.02368-13.71136 41.5232-40.12544 72.71424-54.49216 87.90528-27.4432 29.02016-74.752 51.95776-108.416 60.0576-21.39136 5.1456-56.77056 8.23296-93.08672 1.69472-28.57472-5.14048-57.75872-20.50048-75.49952-42.58816-10.61888-13.22496-13.04576-28.50304-13.04576-28.50304s-0.21504 1.79712 26.06592 15.47264C688.47616 356.53632 723.92192 362.40896 762.08128 358.31296L762.08128 358.31296zM710.25664 434.2016c0 0-10.96704 49.96608-28.85632 68.92032-17.88416 18.94912-37.19168 16.2816-50.88256 11.07968-13.69088-5.20704-22.55872-14.37184-24.69376-30.53568-2.13504-16.16384 13.66528-52.98688 21.77536-78.8992C655.15008 414.57664 682.70592 424.39168 710.25664 434.2016L710.25664 434.2016zM811.83232 430.02368c0 0 7.3984 40.51456-0.09216 60.0576-7.49056 19.54304-22.80448 23.424-34.70336 23.71072-11.89888 0.28672-21.41696-3.84512-28.07296-15.22176-6.656-11.37664-6.31808-43.58656-8.34048-65.3312C764.3648 432.16384 788.10112 431.09376 811.83232 430.02368L811.83232 430.02368zM881.43872 403.8656c0 0 15.7952 26.40384 15.6416 41.94304-0.1536 15.54432-9.9072 22.144-18.19136 25.36448-8.28928 3.22048-16.05632 2.75968-23.71072-3.49184-7.64928-6.25152-15.83616-28.82048-22.94272-43.48416C848.64 417.41824 865.03936 410.64448 881.43872 403.8656L881.43872 403.8656zM943.01184 359.61856c0 0 19.54816 17.82784 23.2704 30.59712 3.72224 12.76928-2.67264 20.52096-8.704 25.15456-6.03136 4.6336-12.53888 6.12352-20.39296 2.8416-7.85408-3.2768-20.18304-19.79904-29.6704-30.10048C919.3472 378.61376 931.17952 369.11616 943.01184 359.61856L943.01184 359.61856zM986.07104 303.17568c0 0 21.46304 10.79296 27.86304 20.992 6.4 10.19392 2.72896 18.46272-1.39264 23.93088-4.11648 5.46816-9.43616 8.32512-17.1008 7.36256-7.66464-0.96256-22.50752-12.35456-33.3312-19.0208C970.09664 325.34528 978.08384 314.26048 986.07104 303.17568L986.07104 303.17568z"  horiz-adv-x="1024" />

    
    <glyph glyph-name="list" unicode="&#58960;" d="M111.395066 716.35962l801.208844 0 0-87.866187-801.208844 0 0 87.866187ZM111.395066 427.932582l801.208844 0 0-87.866187-801.208844 0 0 87.866187ZM111.395066 139.506567l801.208844 0 0-87.866187-801.208844 0 0 87.866187Z"  horiz-adv-x="1024" />

    
    <glyph glyph-name="link" unicode="&#58967;" d="M274.162 457.513l311.351-311.351c71.871-73.228 188.938-73.228 259.46 0 74.223 72.372 74.223 190.686 0 268.108l-337.297 337.298c-106.552 106.431-279.775 106.431-389.189 0-104.614-108.869-104.614-283.675 0-397.837l337.298-337.298c145.453-139.39 374.815-139.39 518.919 0 139.217 145.617 139.217 376.899 0 518.919l-328.649 328.649-60.541-60.541 328.649-328.649c104.752-109.405 104.752-284.835 0-397.838-110.772-103.801-285.717-103.801-397.838 0l-337.297 345.946c-70.149 72.899-70.149 191.853 0 268.108 76.082 70.841 194.888 70.841 268.108 0l337.298-345.946c39.758-36.151 39.758-98.629 0-138.379-37.189-37.647-99.84-37.647-138.379 0l-311.351 320-60.541-69.189z"  horiz-adv-x="1125" />

    
    <glyph glyph-name="fenlei" unicode="&#58933;" d="M455.212 363.21c56.378-110.245 191.453-153.914 301.699-97.536 110.246 56.378 153.914 191.454 97.536 301.7-56.378 110.245-191.453 153.914-301.699 97.536-110.246-56.378-153.914-191.454-97.536-301.7z m115.372 266.821c90.983 46.528 202.458 10.49 248.985-80.494 46.528-90.983 10.489-202.457-80.494-248.985-90.983-46.527-202.458-10.488-248.985 80.495-46.528 90.983-10.489 202.458 80.494 248.984z m308.508-535.75L815.74 218.164c-6.982 13.654-23.711 19.062-37.366 12.08l-6.445-3.296c-13.654-6.982-19.062-23.712-12.08-37.366L823.2 65.7c6.983-13.654 23.713-19.063 37.367-12.08l6.445 3.295c13.654 6.984 19.063 23.713 12.08 37.367z m-744.79 550.117h302.591c12.177 0 22.048 9.87 22.048 22.047s-9.871 22.047-22.048 22.047H134.302c-12.177 0-22.047-9.87-22.047-22.047s9.87-22.047 22.047-22.047z m0-197.711h224.027c12.176 0 22.047 9.87 22.047 22.047s-9.87 22.047-22.047 22.047H134.302c-12.177 0-22.047-9.87-22.047-22.047s9.87-22.047 22.047-22.047z m0-197.711H423.29c12.176 0 22.047 9.87 22.047 22.047 0 12.176-9.871 22.047-22.047 22.047H134.302c-12.177 0-22.047-9.87-22.047-22.047-0.001-12.175 9.87-22.047 22.047-22.047zM729.027 93.57H132.512c-11.189 0-20.258-9.07-20.258-20.258s9.07-20.258 20.258-20.258h596.515c11.189 0 20.258 9.07 20.258 20.258s-9.07 20.258-20.258 20.258z"  horiz-adv-x="1024" />

    
    <glyph glyph-name="huojian" unicode="&#58995;" d="M965.12 426.666667c-81.493333 90.88-230.186667 149.333333-378.453333 149.333333h-6.826667a193.28 193.28 0 0 1-289.493333 109.226667 188.373333 188.373333 0 0 1-51.2-47.36 42.666667 42.666667 0 0 1-2.773334-45.653334 42.666667 42.666667 0 0 1 42.666667-21.333333A149.333333 149.333333 0 0 0 384 540.373333l-16.426667-6.4A42.666667 42.666667 0 0 1 341.333333 494.72v-221.44A42.666667 42.666667 0 0 1 367.36 234.666667l16.64-7.466667a150.4 150.4 0 0 0-106.666667-30.506667 42.666667 42.666667 0 0 1-42.666666-21.333333 42.666667 42.666667 0 0 1 2.773333-45.866667 187.946667 187.946667 0 0 1 51.2-47.36 194.56 194.56 0 0 1 103.893333-29.653333A192 192 0 0 1 580.053333 192h6.613334c149.333333 0 296.96 58.666667 378.453333 149.333333a64 64 0 0 1 0 85.333334z m-535.68 130.773333a192 192 0 0 1-155.946667 55.04 146.133333 146.133333 0 0 0 39.68 36.693333 152.533333 152.533333 0 0 0 176.213334-10.24 149.333333 149.333333 0 0 0 46.293333-65.28 615.04 615.04 0 0 1-104.746667-18.346666 20.053333 20.053333 0 0 1-1.493333 2.133333zM489.173333 128a152.32 152.32 0 0 0-176.213333-10.24 135.893333 135.893333 0 0 0-38.826667 36.266667 192 192 0 0 1 155.093334 55.466666 21.333333 21.333333 0 0 1 2.133333 3.84 615.466667 615.466667 0 0 1 104.533333-18.346666A149.333333 149.333333 0 0 0 489.173333 128z m444.16 242.133333C859.52 287.786667 723.413333 234.666667 586.666667 234.666667a546.773333 546.773333 0 0 0-202.666667 38.613333V494.72A549.76 549.76 0 0 0 586.666667 533.333333c136.746667 0 272.853333-53.12 346.666666-135.466666a21.333333 21.333333 0 0 0 0-27.733334zM682.666667 469.333333a85.333333 85.333333 0 1 1 85.333333-85.333333 85.333333 85.333333 0 0 1-85.333333 85.333333z m0-128a42.666667 42.666667 0 1 0 42.666666 42.666667 42.666667 42.666667 0 0 0-42.666666-42.666667zM128 448h149.333333a21.333333 21.333333 0 0 1 0 42.666667H128a21.333333 21.333333 0 0 1 0-42.666667zM298.666667 298.666667a21.333333 21.333333 0 0 1-21.333334 21.333333H192a21.333333 21.333333 0 0 1 0-42.666667h85.333333a21.333333 21.333333 0 0 1 21.333334 21.333334zM298.666667 384a21.333333 21.333333 0 0 1-21.333334 21.333333H64a21.333333 21.333333 0 0 1 0-42.666666h213.333333a21.333333 21.333333 0 0 1 21.333334 21.333333zM448 469.333333m-21.333333 0a21.333333 21.333333 0 1 1 42.666666 0 21.333333 21.333333 0 1 1-42.666666 0ZM448 384m-21.333333 0a21.333333 21.333333 0 1 1 42.666666 0 21.333333 21.333333 0 1 1-42.666666 0ZM448 298.666667m-21.333333 0a21.333333 21.333333 0 1 1 42.666666 0 21.333333 21.333333 0 1 1-42.666666 0Z"  horiz-adv-x="1024" />

    
    <glyph glyph-name="fail" unicode="&#58991;" d="M512 716.8a332.8 332.8 0 1 0 0-665.6 332.8 332.8 0 0 0 0 665.6z m0-51.2a281.6 281.6 0 1 1 0-563.2 281.6 281.6 0 0 1 0 563.2zM634.0096 292.4544a21.504 21.504 0 1 0-30.464-30.464l-91.392 91.392-91.392-91.392a21.504 21.504 0 0 0-30.464 30.464l91.392 91.392-91.392 91.392a21.504 21.504 0 0 0 30.464 30.464l91.392-91.392 91.392 91.392a21.5552 21.5552 0 0 0 30.464-30.464l-91.392-91.392 91.392-91.392z"  horiz-adv-x="1024" />

    
    <glyph glyph-name="info" unicode="&#59001;" d="M512 716.8a332.8 332.8 0 1 0 0-665.6 332.8 332.8 0 0 0 0 665.6z m0-51.2a281.6 281.6 0 1 1 0-563.2 281.6 281.6 0 0 1 0 563.2zM512.768 556.032a38.7072 38.7072 0 1 0 0-77.3632 38.7072 38.7072 0 0 0 0 77.3632zM546.4576 217.3952h-27.2384c-14.2848 0-29.0304 12.3904-29.0304 23.7056V397.9776h-9.728a25.8048 25.8048 0 1 0 0 51.6096s31.488 0.1024 32.3072 0c13.1072-0.9728 22.5792-6.656 22.5792-17.3568v-163.2768h11.1104a25.8048 25.8048 0 1 0 0-51.5584z"  horiz-adv-x="1024" />

    
    <glyph glyph-name="question" unicode="&#59013;" d="M512.0512 716.8a332.8 332.8 0 1 0 0-665.6 332.8 332.8 0 1 0 0 665.6z m0-51.2a281.6 281.6 0 1 1 281.6512-281.6 281.6 281.6 0 0 1-281.6 281.6zM510.8736 230.8096a32.1536 32.1536 0 0 0-31.744 32.6144c0 18.0224 14.2336 32.6144 31.744 32.6144 17.5104 0 31.744-14.592 31.744-32.6144a32.1536 32.1536 0 0 0-31.744-32.6144zM599.4496 435.712a89.344 89.344 0 0 0-15.5648-21.8112c-6.0416-6.144-16.8448-16.384-32.4608-30.8736a131.584 131.584 0 0 1-10.3424-10.752 41.1648 41.1648 0 0 1-8.704-16.128 316.928 316.928 0 0 1-3.1744-13.5168c-2.4064-13.6704-9.984-20.48-22.6304-20.48a22.6816 22.6816 0 0 0-16.64 6.656c-4.5056 4.5056-6.7584 11.1104-6.7584 19.968 0 11.008 1.6384 20.5824 4.9152 28.672 3.328 8.0896 7.68 15.1552 13.1584 21.2992 5.4272 6.0928 12.8 13.312 22.016 21.76 8.1408 7.3728 14.0288 12.9024 17.6128 16.6912 3.584 3.7376 6.656 7.8848 9.1648 12.4928a35.4304 35.4304 0 0 1-7.5776 41.5744 40.4992 40.4992 0 0 1-29.2352 10.9056c-13.9776 0-24.2176-3.6864-30.8224-10.9568-6.6048-7.3216-12.1856-18.0224-16.7424-32.256-4.3008-14.848-12.4928-22.272-24.576-22.272a23.7056 23.7056 0 0 0-17.92 7.7824 24.2688 24.2688 0 0 0-7.3216 16.896c0 12.4416 3.84 25.088 11.5712 37.9392a90.624 90.624 0 0 0 33.8944 31.8464c14.848 8.3968 32.1024 12.5952 51.9168 12.5952 18.3808 0 34.6112-3.5328 48.64-10.5472 14.1312-7.0144 24.9856-16.5888 32.6656-28.672 7.68-12.0832 11.52-25.2416 11.52-39.424 0-11.2128-2.2016-20.992-6.6048-29.3888z"  horiz-adv-x="1024" />

    
    <glyph glyph-name="success" unicode="&#59022;" d="M512 716.8a332.8 332.8 0 0 0 332.8-332.8512A332.8 332.8 0 1 0 512 716.8z m0-51.2a281.6 281.6 0 0 1-281.6-281.6512A281.6 281.6 0 1 1 512 665.6zM488.704 249.8048a26.2144 26.2144 0 0 0-40.5504-3.84l-105.5744 107.2128a27.0336 27.0336 0 0 0 0 37.8368 26.2144 26.2144 0 0 0 37.4272 0l86.528-87.8592 196.6592 200.96a26.2144 26.2144 0 0 0 37.4784 0c10.24-10.496 10.24-27.392 0-37.888l-211.968-216.4224z"  horiz-adv-x="1024" />

    
    <glyph glyph-name="warn" unicode="&#59024;" d="M512 691.2a307.2 307.2 0 1 0 0-614.4 307.2 307.2 0 0 0 0 614.4z m0-51.2a256 256 0 1 1 0-512 256 256 0 0 1 0 512z m-25.856-111.616c0 13.7216 10.9568 24.832 24.4736 24.832s24.4736-11.1104 24.4736-24.832v-187.392a24.6784 24.6784 0 0 0-24.4736-24.8832 24.6784 24.6784 0 0 0-24.4736 24.832V528.384z m24.4736-314.2144a35.1232 35.1232 0 0 0-34.816 35.3792c0 19.5584 15.5648 35.4304 34.816 35.4304 19.2512 0 34.816-15.872 34.816-35.4304a35.1232 35.1232 0 0 0-34.816-35.3792z"  horiz-adv-x="1024" />

    
    <glyph glyph-name="tishi" unicode="&#59089;" d="M608-64H416c-52.8 0-96 43.2-96 96V132.8c0 11.2-6.4 20.8-14.4 27.2C203.2 228.8 142.4 345.6 144 468.8c1.6 193.6 155.2 352 348.8 363.2 102.4 4.8 198.4-30.4 273.6-100.8C840 660.8 880 566.4 880 464c0-121.6-60.8-235.2-161.6-304-9.6-6.4-14.4-16-14.4-27.2V32c0-52.8-43.2-96-96-96z m-96 832h-16c-156.8-8-286.4-142.4-288-299.2-1.6-102.4 48-196.8 132.8-254.4 27.2-17.6 43.2-48 43.2-80V32c0-17.6 14.4-32 32-32h192c17.6 0 32 14.4 32 32V132.8c0 32 16 62.4 43.2 80C766.4 268.8 816 363.2 816 464c0 84.8-33.6 163.2-94.4 220.8C664 739.2 590.4 768 512 768z m160-704H352c-17.6 0-32 14.4-32 32s14.4 32 32 32h320c17.6 0 32-14.4 32-32s-14.4-32-32-32z"  horiz-adv-x="1024" />

    
    <glyph glyph-name="rili" unicode="&#59090;" d="M896 512H128c-17.6 0-32 14.4-32 32s14.4 32 32 32h768c17.6 0 32-14.4 32-32s-14.4-32-32-32z m-64-544H192c-52.8 0-96 43.2-96 96V672c0 52.8 43.2 96 96 96 17.6 0 32-14.4 32-32s-14.4-32-32-32-32-14.4-32-32v-608c0-17.6 14.4-32 32-32h640c17.6 0 32 14.4 32 32V672c0 17.6-14.4 32-32 32s-32 14.4-32 32 14.4 32 32 32c52.8 0 96-43.2 96-96v-608c0-52.8-43.2-96-96-96zM320 672c-17.6 0-32 14.4-32 32v64c0 17.6 14.4 32 32 32s32-14.4 32-32v-64c0-17.6-14.4-32-32-32z m256 32H448c-17.6 0-32 14.4-32 32s14.4 32 32 32h128c17.6 0 32-14.4 32-32s-14.4-32-32-32z m128-32c-17.6 0-32 14.4-32 32v64c0 17.6 14.4 32 32 32s32-14.4 32-32v-64c0-17.6-14.4-32-32-32z"  horiz-adv-x="1024" />

    
    <glyph glyph-name="fenlei1" unicode="&#59139;" d="M464-64C243.2-64 64 115.2 64 336s179.2 400 400 400c17.6 0 32-14.4 32-32v-336h336c17.6 0 32-14.4 32-32 0-220.8-179.2-400-400-400z m-32 734.4c-169.6-16-304-160-304-334.4 0-185.6 150.4-336 336-336 174.4 0 318.4 134.4 334.4 304H464c-17.6 0-32 14.4-32 32V670.4zM928 432H592c-17.6 0-32 14.4-32 32V800c0 17.6 14.4 32 32 32 203.2 0 368-164.8 368-368 0-17.6-14.4-32-32-32z m-304 64h270.4C880 638.4 766.4 752 624 766.4V496z"  horiz-adv-x="1024" />

    
    <glyph glyph-name="biaoqian" unicode="&#59151;" d="M947.2 473.6l-12.8 212.8c-3.2 64-56 116.8-120 120L601.6 819.2c-36.8 1.6-72-11.2-97.6-36.8L113.6 393.6c-49.6-51.2-49.6-131.2 0-180.8l225.6-225.6c49.6-49.6 131.2-49.6 180.8 0L908.8 376c27.2 25.6 41.6 60.8 38.4 97.6z m-81.6-52.8L475.2 30.4c-25.6-25.6-65.6-25.6-91.2 0L158.4 257.6c-25.6 25.6-25.6 65.6 0 91.2l390.4 388.8c12.8 12.8 30.4 19.2 49.6 19.2L812.8 744c32-1.6 57.6-27.2 60.8-60.8l12.8-212.8c-1.6-19.2-8-36.8-20.8-49.6zM550.4 603.2c-49.6-49.6-49.6-131.2 0-180.8s131.2-49.6 180.8 0 49.6 131.2 0 180.8-131.2 49.6-180.8 0z m134.4-136c-25.6-25.6-65.6-25.6-91.2 0-25.6 25.6-25.6 65.6 0 91.2 25.6 25.6 65.6 25.6 91.2 0 25.6-25.6 25.6-65.6 0-91.2z"  horiz-adv-x="1024" />

    
    <glyph glyph-name="icon-test" unicode="&#59594;" d="M759.04-39.786667H42.666667c-23.530667 0-42.666667 19.136-42.666667 42.666667v555.733333c0 23.530667 19.136 42.666667 42.666667 42.666667h716.373333c23.530667 0 42.666667-19.136 42.666667-42.666667v-555.733333c0-23.530667-19.136-42.666667-42.666667-42.666667z m0 42.666667v-21.333333 21.333333zM42.666667 558.613333v-555.733333h716.309333l0.064 555.733333H42.666667zM1002.666667 27.050667c-3.477333 0-6.976 0.853333-10.154667 2.56l-200.256 108.224a21.333333 21.333333 0 0 0 20.288 37.525333L981.333333 84.138667V476.309333l-168.362666-95.957333a21.333333 21.333333 0 0 0-21.12 37.077333l200.256 114.133334a21.333333 21.333333 0 0 0 31.893333-18.538667v-464.64a21.333333 21.333333 0 0 0-21.333333-21.333333zM559.232 163.392c-54.272 0-98.432 44.16-98.432 98.432s44.16 98.410667 98.432 98.410667 98.432-44.138667 98.432-98.410667-44.16-98.432-98.432-98.432z m0 154.197333c-30.741333 0-55.765333-25.002667-55.765333-55.744s25.002667-55.765333 55.765333-55.765333 55.765333 25.024 55.765333 55.765333-25.024 55.744-55.765333 55.744zM242.410667 163.349333c-54.293333 0-98.474667 44.181333-98.474667 98.474667s44.181333 98.453333 98.474667 98.453333c54.293333 0 98.474667-44.16 98.474666-98.453333s-44.181333-98.474667-98.474666-98.474667z m0 154.282667c-30.762667 0-55.808-25.024-55.808-55.786667s25.024-55.808 55.808-55.808 55.808 25.045333 55.808 55.808-25.045333 55.786667-55.808 55.786667zM231.637333 583.978667a21.333333 21.333333 0 0 0-21.333333 21.333333V720.448a21.333333 21.333333 0 0 0 21.333333 21.333333h274.56a21.333333 21.333333 0 0 0 0-42.666666h-253.226666v-93.802667a21.333333 21.333333 0 0 0-21.333334-21.333333zM643.370667 632.981333c-90.368 0-158.528 37.610667-158.528 87.466667 0 49.792 68.16 87.338667 158.528 87.338667 90.261333 0 158.336-37.546667 158.336-87.338667 0-49.856-68.053333-87.466667-158.336-87.466667z m0 132.138667c-69.653333 0-115.882667-26.88-115.882667-44.672 0-18.261333 45.141333-44.8 115.882667-44.8 70.613333 0 115.669333 26.538667 115.669333 44.8 0 18.218667-45.056 44.672-115.669333 44.672z"  horiz-adv-x="1024" />

    
    <glyph glyph-name="icon-test1" unicode="&#59595;" d="M758.954667-79.616H42.666667c-23.530667 0-42.666667 19.136-42.666667 42.666667V466.005333c0 23.530667 19.136 42.666667 42.666667 42.666667h716.288c23.530667 0 42.666667-19.136 42.666666-42.666667v-502.954666c0-23.530667-19.136-42.666667-42.666666-42.666667z m0 42.666667v-21.333334 21.333334zM42.666667 466.005333v-502.954666h716.224l0.064 502.954666H42.666667zM1002.666667-39.125333c-3.477333 0-6.976 0.853333-10.154667 2.56l-200.298667 108.16a21.333333 21.333333 0 0 0 20.288 37.525333L981.333333 17.984V410.069333l-168.405333-95.978666a21.397333 21.397333 0 0 0-29.098667 7.978666 21.354667 21.354667 0 0 0 7.978667 29.098667l200.298667 114.154667a21.333333 21.333333 0 0 0 31.893333-18.538667v-464.576a21.290667 21.290667 0 0 0-21.333333-21.333333zM603.925333 59.669333H197.674667a21.333333 21.333333 0 1 0 0 42.666667h406.229333a21.333333 21.333333 0 1 0 0.021333-42.666667zM255.893333 535.957333c-85.909333 0-155.818667 69.888-155.818666 155.818667s69.909333 155.818667 155.818666 155.818667 155.818667-69.909333 155.818667-155.818667-69.909333-155.818667-155.818667-155.818667z m0 268.970667a113.28 113.28 0 0 1-113.152-113.152 113.28 113.28 0 0 1 113.152-113.152 113.28 113.28 0 0 1 113.152 113.152 113.28 113.28 0 0 1-113.152 113.152zM603.968 560.256a120.106667 120.106667 0 0 0-119.978667 119.978667 120.106667 120.106667 0 0 0 119.978667 119.978666 120.106667 120.106667 0 0 0 120-119.978666 120.128 120.128 0 0 0-120-119.978667z m0 197.290667c-42.624 0-77.290667-34.688-77.290667-77.312s34.666667-77.312 77.290667-77.312c42.645333 0 77.333333 34.666667 77.333333 77.312S646.613333 757.546667 603.968 757.546667z"  horiz-adv-x="1024" />

    
    <glyph glyph-name="icon-test2" unicode="&#59593;" d="M512-86.506667C241.109333-86.506667 20.736 133.888 20.736 404.778667S241.109333 896.042667 512 896.042667c270.869333 0 491.242667-220.373333 491.242667-491.264S782.869333-86.506667 512-86.506667z m0 939.882667c-247.36 0-448.597333-201.237333-448.597333-448.597333 0-247.36 201.237333-448.618667 448.597333-448.618667s448.576 201.258667 448.576 448.618667S759.36 853.376 512 853.376zM511.978667 538.410667a118.016 118.016 0 0 0-117.888 117.888c0 65.002667 52.885333 117.888 117.888 117.888s117.888-52.885333 117.888-117.888a118.016 118.016 0 0 0-117.888-117.888z m0 193.109333c-41.472 0-75.221333-33.749333-75.221334-75.221333s33.749333-75.221333 75.221334-75.221334 75.221333 33.749333 75.221333 75.221334-33.749333 75.221333-75.221333 75.221333zM511.978667 35.328c-65.002667 0-117.888 52.885333-117.888 117.866667s52.885333 117.888 117.888 117.888 117.888-52.885333 117.888-117.888-52.885333-117.866667-117.888-117.866667z m0 193.109333c-41.472 0-75.221333-33.749333-75.221334-75.221333s33.749333-75.2 75.221334-75.2 75.221333 33.728 75.221333 75.2-33.749333 75.221333-75.221333 75.221333zM763.626667 286.890667c-65.088 0-118.037333 52.885333-118.037334 117.888 0 64.981333 52.949333 117.866667 118.037334 117.866666a117.973333 117.973333 0 0 0 117.824-117.866666 117.973333 117.973333 0 0 0-117.824-117.888z m0 193.088c-41.557333 0-75.370667-33.728-75.370667-75.2s33.813333-75.221333 75.370667-75.221334c41.429333 0 75.157333 33.749333 75.157333 75.221334s-33.728 75.2-75.157333 75.2zM260.458667 286.890667a118.037333 118.037333 0 0 0-117.930667 117.888 118.037333 118.037333 0 0 0 117.930667 117.866666 118.058667 118.058667 0 0 0 117.973333-117.866666 118.058667 118.058667 0 0 0-117.973333-117.888z m0 193.088c-41.493333 0-75.264-33.728-75.264-75.2s33.770667-75.221333 75.264-75.221334c41.536 0 75.306667 33.749333 75.306666 75.221334s-33.770667 75.2-75.306666 75.2zM981.930667-128c-1.429333 0-2.88 0.149333-4.330667 0.448l-314.986667 65.066667a21.333333 21.333333 0 1 0 8.64 41.792l315.008-65.088A21.333333 21.333333 0 0 0 981.930667-128z"  horiz-adv-x="1024" />

    
    <glyph glyph-name="next" unicode="&#59145;" d="M364.8 789.333333L298.666667 723.2 637.866667 384 298.666667 44.8l66.133333-66.133333L768 384z"  horiz-adv-x="1024" />

    
    <glyph glyph-name="previous" unicode="&#59158;" d="M659.2-21.333333l66.133333 66.133333L386.133333 384 725.333333 723.2 659.2 789.333333 256 384z"  horiz-adv-x="1024" />

    
    <glyph glyph-name="iconfonticon-shebei" unicode="&#58941;" d="M306.595-38.902a25.583 25.583 0 0 0-25.585 25.583V131.524c0 9.998-8.134 18.132-18.132 18.132h-22.063c-10 0-18.132-8.134-18.132-18.132V-13.32a25.583 25.583 0 0 0-35.627-23.529A164.99 164.99 0 0 0 86.7 115.093c0 60.46 32.784 115.399 84.818 144.333V539.825A164.97 164.97 0 0 0 86.7 684.157 164.992 164.992 0 0 0 187.056 836.1a25.583 25.583 0 0 0 35.627-23.528v-144.843c0-9.999 8.134-18.132 18.132-18.132h22.063c9.998 0 18.132 8.134 18.132 18.132V812.572A25.583 25.583 0 0 0 316.637 836.1a164.99 164.99 0 0 0 100.357-151.943c0-60.46-32.784-115.4-84.819-144.332v-280.4a164.964 164.964 0 0 0 84.82-144.332A164.99 164.99 0 0 0 316.636-36.85a25.586 25.586 0 0 0-10.042-2.053z m-65.78 239.723h22.063c38.21 0 69.297-31.087 69.297-69.297v-97.351c21.16 21 33.654 49.907 33.654 80.92a113.891 113.891 0 0 1-69.28 104.884 25.583 25.583 0 0 0-15.539 23.53V555.744a25.582 25.582 0 0 0 15.539 23.528 113.894 113.894 0 0 1 69.28 104.885c0 31.013-12.495 59.919-33.654 80.921v-97.349c0-38.211-31.086-69.297-69.297-69.297h-22.063c-38.21 0-69.298 31.086-69.298 69.297v97.348c-21.159-21.002-33.653-49.908-33.653-80.92 0-45.75 27.194-86.92 69.28-104.886a25.582 25.582 0 0 0 15.539-23.528v-312.238a25.582 25.582 0 0 0-15.54-23.529 113.894 113.894 0 0 1-69.28-104.884c0-31.013 12.495-59.92 33.654-80.92v97.35c0 38.211 31.087 69.298 69.298 69.298zM735.186-47.024H647.6c-20.829 0-36.537 19.5-36.537 45.357V608.616h-45.016c-24.106 0-42.988 17.07-42.988 38.86V805.466c0 14.129 11.453 25.583 25.583 25.583 67.332 0 130.905-8.655 188.95-25.725 46.795-13.76 90.124-32.992 128.787-57.158 66.837-41.777 96.972-84.237 98.221-86.023a25.59 25.59 0 0 0 4.62-14.664c0-21.791-18.882-38.861-42.987-38.861h-154.51v-610.283c0-25.858-15.708-45.358-36.537-45.358z m-72.957 51.166h58.328V634.198c0 14.13 11.453 25.583 25.583 25.583h151.773c-14.018 13.28-34.2 29.958-61.119 46.525-51.132 31.47-137.179 68.604-262.57 73.12v-119.645h62.42c14.13 0 25.583-11.454 25.583-25.583v-630.056z"  horiz-adv-x="1024" />

    
    <glyph glyph-name="chuntianran" unicode="&#59251;" d="M254.419504 0.6510789999999815l-34.458813 78.682013c81.316004 35.599799 186.806593 55.211463 297.061696 55.211463 104.953354 0 206.602452-17.96721 286.190091-50.598398l-32.580023-79.487356C701.127452 32.961971999999946 611.07139 48.64823200000001 517.022387 48.64823200000001c-98.66309 0.001023-191.923124-17.044188-262.602883-47.997153zM389.940037 305.00178500000004c-85.089957 0-173.5865 28.209482-238.712777 105.5745C33.213449 550.785607 70.51603 744.6888289999999 72.15946 752.875279a34.369785 34.369785 0 0 0 22.849404 25.835411c119.079072 39.575344 255.908414 11.365862 348.548324-71.861678h0.016373c151.307078-135.90632 104.013959-346.065783 101.933577-354.939894a34.370809 34.370809 0 0 0-22.447245-24.686239c-40.329521-13.639648-86.212524-22.221094-133.119856-22.221094zM136.749524 719.289346c-5.184069-48.216141-9.612938-173.376723 67.055208-264.456091 73.380264-87.187735 188.165544-93.218078 277.919731-68.439742 6.475482 48.786123 13.370519 181.798533-84.084047 269.338285h0.016373c-68.330248 61.367673-170.767292 85.71929-260.907265 63.557548zM680.542624 281.73282500000005c-66.787102 0-131.041522 25.467021-179.810249 58.784848a34.329876 34.329876 0 0 0-14.947433 29.811979c0.318248 7.590885 9.5454 186.822966 161.691589 261.956154v-0.008186c93.109608 46.01808 209.336726 37.864376 296.104905-20.718881a34.343179 34.343179 0 0 0 15.031345-31.027667c-0.503467-6.92062-14.041808-170.499186-140.150994-256.411881-44.323485-30.205952-91.734284-42.386366-137.919163-42.386366zM556.664246 386.409886c63.146179-36.799114 150.099576-55.219649 223.110427-5.502317 75.997881 51.780317 100.256378 143.866618 107.48706 184.508247-63.667042 34.332946-145.267525 36.924981-209.354122 5.259794v-0.008187c-90.038666-44.458561-114.716718-142.769634-121.243365-184.257537z m106.027825 215.066217h0.167822-0.167822zM491.873614-28.371932000000015c-17.179264 0-32.010041 12.850679-34.073027 30.331819-16.239869 137.835252-13.169951 228.470505 12.666484 372.99204 3.321652 18.672268 21.054525 31.204699 39.860847 27.773553 18.688641-3.338025 31.120788-21.188578 27.78174-39.869033-24.476461-136.929626-27.412326-222.666312-12.062734-352.84314 2.214435-18.856463-11.257391-35.935444-30.097482-38.149878-1.3743-0.167822-2.733251-0.23536-4.075828-0.235361z"  horiz-adv-x="1024" />

    
    <glyph glyph-name="Energy" unicode="&#59005;" d="M371.2 354.133333c-7.970133-8.533333-17.92-12.8-29.866667-12.8s-22.186667 4.266667-30.72 12.8c-7.970133 7.970133-11.946667 17.92-11.946666 29.866667s3.976533 22.186667 11.946666 30.72c8.533333 7.970133 18.773333 11.946667 30.72 11.946667s21.896533-3.976533 29.866667-11.946667c8.533333-8.533333 12.8-18.773333 12.8-30.72s-4.266667-21.896533-12.8-29.866667zM640 384c0 11.946667 3.959467 22.186667 11.946667 30.72 8.533333 7.970133 18.773333 11.946667 30.72 11.946667s21.896533-3.976533 29.866666-11.946667c8.533333-8.533333 12.8-18.773333 12.8-30.72s-4.266667-21.896533-12.8-29.866667c-7.970133-8.533333-17.92-12.8-29.866666-12.8s-22.186667 4.266667-30.72 12.8c-7.9872 7.970133-11.946667 17.92-11.946667 29.866667zM853.333333-59.733333H170.666667c-66.030933 0-102.4 36.369067-102.4 102.4V725.333333c0 66.030933 36.369067 102.4 102.4 102.4h682.666666c66.030933 0 102.4-36.369067 102.4-102.4v-682.666666c0-66.030933-36.369067-102.4-102.4-102.4zM170.666667 793.6c-47.223467 0-68.266667-21.0432-68.266667-68.266667v-682.666666c0-47.223467 21.0432-68.266667 68.266667-68.266667h682.666666c47.223467 0 68.266667 21.0432 68.266667 68.266667V725.333333c0 47.223467-21.0432 68.266667-68.266667 68.266667H170.666667z m341.333333-768c-98.679467 0-183.995733 35.259733-253.559467 104.840533S153.6 285.320533 153.6 384s35.2768 183.995733 104.840533 253.559467S413.320533 742.4 512 742.4s183.995733-35.2768 253.559467-104.840533S870.4 482.679467 870.4 384s-35.259733-183.978667-104.840533-253.559467S610.679467 25.6 512 25.6z m0 682.666667c-89.2928 0-166.485333-31.914667-229.4272-94.839467S187.733333 473.2928 187.733333 384s31.914667-166.485333 94.839467-229.4272C345.514667 91.630933 422.7072 59.733333 512 59.733333s166.485333 31.8976 229.4272 94.839467C804.369067 217.514667 836.266667 294.7072 836.266667 384s-31.8976 166.485333-94.839467 229.4272C678.485333 676.352 601.2928 708.266667 512 708.266667z m170.666667-384a58.606933 58.606933 0 0 0-42.786134 17.800533C628.6336 353.28 622.933333 367.394133 622.933333 384c0 16.366933 5.563733 30.634667 16.554667 42.376533 12.561067 11.793067 26.811733 17.3568 43.178667 17.3568 16.5888 0 30.702933-5.700267 41.9328-16.964266A58.504533 58.504533 0 0 0 742.4 384c0-16.571733-6.2976-31.214933-18.210133-42.3424-10.308267-11.093333-24.951467-17.390933-41.5232-17.390933z m0 85.333333c-7.6288 0-13.704533-2.338133-19.063467-7.355733-4.1984-4.539733-6.536533-10.5984-6.536533-18.244267 0-7.406933 2.2016-13.073067 6.929066-17.783467 5.341867-5.3248 11.264-7.816533 18.670934-7.816533 7.2704 0 12.629333 2.286933 17.390933 7.389867 5.922133 5.5808 8.209067 10.939733 8.209067 18.210133 0 7.406933-2.491733 13.329067-7.799467 18.653867-4.727467 4.744533-10.3936 6.946133-17.800533 6.946133z m-341.333334-85.333333a58.5728 58.5728 0 0 0-42.786133 17.800533c-11.246933 11.229867-16.9472 25.344-16.9472 41.9328 0 16.366933 5.563733 30.6176 16.554667 42.359467 12.561067 11.810133 26.811733 17.373867 43.178666 17.373866 16.5888 0 30.702933-5.700267 41.949867-16.964266A58.555733 58.555733 0 0 0 401.066667 384c0-16.571733-6.2976-31.214933-18.210134-42.3424-10.308267-11.093333-24.951467-17.390933-41.5232-17.390933z m0 85.333333c-7.645867 0-13.704533-2.338133-19.063466-7.355733-4.1984-4.539733-6.536533-10.5984-6.536534-18.244267 0-7.406933 2.2016-13.073067 6.946134-17.800533 5.3248-5.307733 11.246933-7.799467 18.653866-7.799467 7.2704 0 12.629333 2.286933 17.390934 7.389867 5.9392 5.5808 8.209067 10.939733 8.209066 18.210133a24.917333 24.917333 0 0 1-7.799466 18.653867c-4.744533 4.744533-10.3936 6.946133-17.800534 6.946133z"  horiz-adv-x="1024" />

    
    <glyph glyph-name="Seedling" unicode="&#59007;" d="M938.666667-59.733333H85.333333a17.066667 17.066667 0 0 0-17.066666 17.066666c0 121.890133 43.588267 227.549867 129.536 314.112 82.568533 81.988267 182.442667 125.422933 297.130666 129.3312v61.4912l-106.4448 106.4448C362.837333 548.061867 332.6976 537.6 298.666667 537.6c-39.799467 0-74.2912 14.318933-102.519467 42.5472C167.918933 608.3584 153.6 642.850133 153.6 682.666667V810.666667a17.066667 17.066667 0 0 0 17.066667 17.066666h128c39.799467 0 74.2912-14.318933 102.519466-42.5472C429.4144 756.974933 443.733333 722.4832 443.733333 682.666667c0-34.013867-10.461867-64.1536-31.112533-89.821867L512 493.4656l99.3792 99.3792C590.711467 618.496 580.266667 648.635733 580.266667 682.666667c0 39.816533 14.318933 74.308267 42.5472 102.519466C651.025067 813.4144 685.533867 827.733333 725.333333 827.733333H853.333333a17.066667 17.066667 0 0 0 17.066667-17.066666v-128c0-39.816533-14.318933-74.308267-42.5472-102.519467C799.6416 551.918933 765.1328 537.6 725.333333 537.6c-34.013867 0-64.1536 10.461867-89.821866 31.112533L529.066667 462.267733v-61.4912c114.688-3.908267 214.272-47.342933 296.226133-129.297066C911.854933 184.917333 955.733333 79.223467 955.733333-42.666667a17.066667 17.066667 0 0 0-17.066666-17.066666zM102.724267-25.6h818.568533c-3.908267 105.335467-44.270933 197.085867-120.1152 272.9472C721.800533 326.7072 624.520533 366.933333 512 366.933333c-112.5376 0-210.1248-40.2432-290.065067-119.637333C146.688 171.537067 106.5984 79.7696 102.724267-25.6z m557.1072 618.632533C678.7584 578.730667 700.330667 571.733333 725.333333 571.733333c30.856533 0 56.490667 10.6496 78.3872 32.546134S836.266667 651.810133 836.266667 682.666667V793.6h-110.933334c-30.856533 0-56.490667-10.6496-78.3872-32.546133S614.4 713.5232 614.4 682.666667c0-25.002667 6.980267-46.592 21.282133-65.501867l34.9184 34.901333a17.0496 17.0496 0 1 0 24.132267-24.132266l-34.901333-34.901334zM187.733333 793.6v-110.933333c0-30.856533 10.6496-56.507733 32.546134-78.370134C242.176 582.382933 267.810133 571.733333 298.666667 571.733333c25.002667 0 46.574933 6.997333 65.501866 21.2992l-34.901333 34.901334a17.0496 17.0496 0 1 0 24.132267 24.132266l34.901333-34.901333C402.602667 636.091733 409.6 657.681067 409.6 682.666667c0 30.856533-10.6496 56.507733-32.546133 78.370133C355.157333 782.9504 329.5232 793.6 298.666667 793.6H187.733333z"  horiz-adv-x="1024" />

    
    <glyph glyph-name="Left" unicode="&#59146;" d="M992.064 384.032c0-17.6-14.368-32-32-32H136.416l271.36-298.56c11.84-13.12 10.88-33.28-2.24-45.12a31.776 31.776 0 0 0-45.088 2.24l-320 352a31.488 31.488 0 0 0 0 42.88l320 352a31.904 31.904 0 1 0 47.328-42.88l-271.36-298.56h823.68c17.6 0 32-14.4 32-32"  horiz-adv-x="1024" />

    
    <glyph glyph-name="back_ui" unicode="&#59000;" d="M732.586667 39.253333a21.333333 21.333333 0 0 0 0-30.293333l-45.226667-45.226667a20.48 20.48 0 0 0-29.866667 0l-392.106666 392.106667a32 32 0 0 0-9.386667 22.613333v11.093334a32 32 0 0 0 9.386667 22.613333l392.106666 392.106667a20.48 20.48 0 0 0 29.866667 0l45.226667-45.226667a21.333333 21.333333 0 0 0 0-30.293333L387.84 384z"  horiz-adv-x="1024" />

    
    <glyph glyph-name="next_ui" unicode="&#59006;" d="M291.413333 728.746667a21.333333 21.333333 0 0 0 0 30.293333l45.226667 45.226667a20.48 20.48 0 0 0 29.866667 0l392.106666-392.106667a32 32 0 0 0 9.386667-22.613333v-11.093334a32 32 0 0 0-9.386667-22.613333l-392.106666-392.106667a20.48 20.48 0 0 0-29.866667 0l-45.226667 45.226667a21.333333 21.333333 0 0 0 0 30.293333L636.16 384z"  horiz-adv-x="1024" />

    


  </font>
</defs>
</svg>
